<?xml version="1.0" encoding="UTF-8"?>
<svg width="1280" height="640" viewBox="0 0 1280 640" fill="none" xmlns="http://www.w3.org/2000/svg" role="img" aria-labelledby="title desc">
  <title id="title">Movie UI Dashboard</title>
  <desc id="desc">Compare APIs, slice movie data, and manage records in one responsive admin UI.</desc>
  <defs>
    <linearGradient id="bg" x1="84" y1="52" x2="1180" y2="592" gradientUnits="userSpaceOnUse">
      <stop stop-color="#0F172A"/>
      <stop offset="0.52" stop-color="#111827"/>
      <stop offset="1" stop-color="#1F2937"/>
    </linearGradient>
    <linearGradient id="panel" x1="250" y1="120" x2="1110" y2="520" gradientUnits="userSpaceOnUse">
      <stop stop-color="rgba(255,255,255,0.18)"/>
      <stop offset="1" stop-color="rgba(255,255,255,0.06)"/>
    </linearGradient>
    <linearGradient id="accent" x1="188" y1="112" x2="582" y2="410" gradientUnits="userSpaceOnUse">
      <stop stop-color="#F97316"/>
      <stop offset="1" stop-color="#FACC15"/>
    </linearGradient>
    <filter id="blur-lg" x="-20%" y="-20%" width="140%" height="140%">
      <feGaussianBlur stdDeviation="40"/>
    </filter>
    <filter id="shadow" x="-20%" y="-20%" width="140%" height="140%">
      <feDropShadow dx="0" dy="24" stdDeviation="24" flood-color="#020617" flood-opacity="0.3"/>
    </filter>
  </defs>

  <rect width="1280" height="640" rx="36" fill="url(#bg)"/>

  <circle cx="1120" cy="92" r="160" fill="#F97316" opacity="0.18" filter="url(#blur-lg)"/>
  <circle cx="158" cy="520" r="180" fill="#22C55E" opacity="0.12" filter="url(#blur-lg)"/>

  <rect x="56" y="56" width="1168" height="528" rx="30" fill="rgba(255,255,255,0.04)" stroke="rgba(255,255,255,0.12)"/>

  <g filter="url(#shadow)">
    <rect x="646" y="108" width="502" height="404" rx="28" fill="rgba(15,23,42,0.72)" stroke="rgba(255,255,255,0.12)"/>
    <rect x="680" y="154" width="170" height="20" rx="10" fill="rgba(255,255,255,0.16)"/>
    <rect x="1000" y="154" width="114" height="20" rx="10" fill="#F97316" opacity="0.85"/>
    <rect x="680" y="200" width="434" height="56" rx="18" fill="rgba(255,255,255,0.06)" stroke="rgba(255,255,255,0.08)"/>

    <rect x="680" y="286" width="126" height="92" rx="20" fill="rgba(255,255,255,0.06)" stroke="rgba(255,255,255,0.08)"/>
    <rect x="826" y="286" width="126" height="92" rx="20" fill="rgba(255,255,255,0.06)" stroke="rgba(255,255,255,0.08)"/>
    <rect x="972" y="286" width="142" height="92" rx="20" fill="rgba(255,255,255,0.06)" stroke="rgba(255,255,255,0.08)"/>

    <rect x="680" y="410" width="434" height="18" rx="9" fill="rgba(255,255,255,0.08)"/>
    <rect x="680" y="446" width="434" height="18" rx="9" fill="rgba(255,255,255,0.08)"/>
  </g>

  <g filter="url(#shadow)">
    <rect x="116" y="116" width="476" height="408" rx="30" fill="url(#panel)" stroke="rgba(255,255,255,0.14)"/>
  </g>

  <rect x="152" y="152" width="136" height="36" rx="18" fill="rgba(249,115,22,0.18)" stroke="rgba(251,146,60,0.28)"/>
  <text x="220" y="175" fill="#FDBA74" font-size="18" font-family="'Geist Variable', Arial, sans-serif" text-anchor="middle" letter-spacing="0.18em">FILM DATA APP</text>

  <text x="152" y="248" fill="#F8FAFC" font-size="64" font-weight="700" font-family="'Geist Variable', Arial, sans-serif">Movie UI Dashboard</text>
  <text x="152" y="298" fill="#CBD5E1" font-size="28" font-family="'Geist Variable', Arial, sans-serif">Compare APIs, slice movie data, and manage records in one responsive admin UI.</text>

  <g>
    <rect x="152" y="352" width="178" height="44" rx="22" fill="rgba(255,255,255,0.08)" stroke="rgba(255,255,255,0.12)"/>
    <text x="241" y="380" fill="#F8FAFC" font-size="20" font-family="'Geist Variable', Arial, sans-serif" text-anchor="middle">REST + GraphQL</text>

    <rect x="346" y="352" width="138" height="44" rx="22" fill="rgba(255,255,255,0.08)" stroke="rgba(255,255,255,0.12)"/>
    <text x="415" y="380" fill="#F8FAFC" font-size="20" font-family="'Geist Variable', Arial, sans-serif" text-anchor="middle">Filtering</text>

    <rect x="500" y="352" width="92" height="44" rx="22" fill="rgba(255,255,255,0.08)" stroke="rgba(255,255,255,0.12)"/>
    <text x="546" y="380" fill="#F8FAFC" font-size="20" font-family="'Geist Variable', Arial, sans-serif" text-anchor="middle">CRUD</text>
  </g>

  <g>
    <rect x="162" y="438" width="160" height="8" rx="4" fill="rgba(255,255,255,0.10)"/>
    <rect x="162" y="464" width="214" height="8" rx="4" fill="rgba(255,255,255,0.10)"/>
    <rect x="162" y="490" width="130" height="8" rx="4" fill="rgba(255,255,255,0.10)"/>
  </g>

  <g>
    <rect x="720" y="310" width="48" height="16" rx="8" fill="url(#accent)"/>
    <rect x="866" y="310" width="48" height="16" rx="8" fill="url(#accent)"/>
    <rect x="1012" y="310" width="48" height="16" rx="8" fill="url(#accent)"/>

    <text x="720" y="352" fill="#F8FAFC" font-size="30" font-weight="700" font-family="'Geist Variable', Arial, sans-serif">$2.9B</text>
    <text x="866" y="352" fill="#F8FAFC" font-size="30" font-weight="700" font-family="'Geist Variable', Arial, sans-serif">18</text>
    <text x="1012" y="352" fill="#F8FAFC" font-size="30" font-weight="700" font-family="'Geist Variable', Arial, sans-serif">API</text>

    <text x="720" y="370" fill="#94A3B8" font-size="14" font-family="'Geist Variable', Arial, sans-serif">Worldwide gross</text>
    <text x="866" y="370" fill="#94A3B8" font-size="14" font-family="'Geist Variable', Arial, sans-serif">Columns</text>
    <text x="1012" y="370" fill="#94A3B8" font-size="14" font-family="'Geist Variable', Arial, sans-serif">Mode toggle</text>
  </g>

  <g opacity="0.9">
    <rect x="704" y="428" width="92" height="8" rx="4" fill="#38BDF8"/>
    <rect x="812" y="428" width="138" height="8" rx="4" fill="#F97316"/>
    <rect x="966" y="428" width="74" height="8" rx="4" fill="#22C55E"/>
    <rect x="1056" y="428" width="42" height="8" rx="4" fill="#E2E8F0"/>

    <rect x="704" y="464" width="148" height="8" rx="4" fill="#E2E8F0"/>
    <rect x="868" y="464" width="88" height="8" rx="4" fill="#38BDF8"/>
    <rect x="972" y="464" width="126" height="8" rx="4" fill="#F97316"/>
  </g>
</svg>
